<?xml version="1.0" encoding="UTF-8" standalone="no"?>
<!DOCTYPE svg PUBLIC "-//W3C//DTD SVG 1.1//EN"
 "http://www.w3.org/Graphics/SVG/1.1/DTD/svg11.dtd">
<!-- Generated by graphviz version 7.0.6 (20230106.0513)
 -->
<!-- Pages: 1 -->
<svg width="523pt" height="332pt"
 viewBox="0.00 0.00 522.73 332.00" xmlns="http://www.w3.org/2000/svg" xmlns:xlink="http://www.w3.org/1999/xlink">
<g id="graph0" class="graph" transform="scale(1 1) rotate(0) translate(4 328)">
<polygon fill="white" stroke="none" points="-4,4 -4,-328 518.73,-328 518.73,4 -4,4"/>
<!-- [root] aws_eip.ip_elastic (expand) -->
<g id="node1" class="node">
<title>[root] aws_eip.ip_elastic (expand)</title>
<polygon fill="none" stroke="black" points="221.86,-180 102.86,-180 102.86,-144 221.86,-144 221.86,-180"/>
<text text-anchor="middle" x="162.36" y="-158.3" font-family="Times New Roman,serif" font-size="14.00">aws_eip.ip_elastic</text>
</g>
<!-- [root] aws_instance.instance_web (expand) -->
<g id="node2" class="node">
<title>[root] aws_instance.instance_web (expand)</title>
<polygon fill="none" stroke="black" points="247.36,-108 77.36,-108 77.36,-72 247.36,-72 247.36,-108"/>
<text text-anchor="middle" x="162.36" y="-86.3" font-family="Times New Roman,serif" font-size="14.00">aws_instance.instance_web</text>
</g>
<!-- [root] aws_eip.ip_elastic (expand)&#45;&gt;[root] aws_instance.instance_web (expand) -->
<g id="edge1" class="edge">
<title>[root] aws_eip.ip_elastic (expand)&#45;&gt;[root] aws_instance.instance_web (expand)</title>
<path fill="none" stroke="black" d="M162.36,-143.7C162.36,-136.41 162.36,-127.73 162.36,-119.54"/>
<polygon fill="black" stroke="black" points="165.86,-119.62 162.36,-109.62 158.86,-119.62 165.86,-119.62"/>
</g>
<!-- [root] provider[&quot;registry.terraform.io/hashicorp/aws&quot;] -->
<g id="node5" class="node">
<title>[root] provider[&quot;registry.terraform.io/hashicorp/aws&quot;]</title>
<polygon fill="none" stroke="black" points="257.36,-36 0.14,-18 257.36,0 514.59,-18 257.36,-36"/>
<text text-anchor="middle" x="257.36" y="-14.3" font-family="Times New Roman,serif" font-size="14.00">provider[&quot;registry.terraform.io/hashicorp/aws&quot;]</text>
</g>
<!-- [root] aws_instance.instance_web (expand)&#45;&gt;[root] provider[&quot;registry.terraform.io/hashicorp/aws&quot;] -->
<g id="edge2" class="edge">
<title>[root] aws_instance.instance_web (expand)&#45;&gt;[root] provider[&quot;registry.terraform.io/hashicorp/aws&quot;]</title>
<path fill="none" stroke="black" d="M185.85,-71.7C198.14,-62.64 213.34,-51.44 226.57,-41.69"/>
<polygon fill="black" stroke="black" points="228.58,-44.55 234.56,-35.81 224.43,-38.92 228.58,-44.55"/>
</g>
<!-- [root] aws_instance.instance_web2 (expand) -->
<g id="node3" class="node">
<title>[root] aws_instance.instance_web2 (expand)</title>
<polygon fill="none" stroke="black" points="416.86,-180 239.86,-180 239.86,-144 416.86,-144 416.86,-180"/>
<text text-anchor="middle" x="328.36" y="-158.3" font-family="Times New Roman,serif" font-size="14.00">aws_instance.instance_web2</text>
</g>
<!-- [root] aws_instance.instance_web2 (expand)&#45;&gt;[root] aws_instance.instance_web (expand) -->
<g id="edge3" class="edge">
<title>[root] aws_instance.instance_web2 (expand)&#45;&gt;[root] aws_instance.instance_web (expand)</title>
<path fill="none" stroke="black" d="M286.9,-143.52C264.83,-134.21 237.49,-122.68 214.05,-112.79"/>
<polygon fill="black" stroke="black" points="215.55,-109.63 204.98,-108.97 212.83,-116.08 215.55,-109.63"/>
</g>
<!-- [root] data.aws_ami.server&#45;ubuntu (expand) -->
<g id="node4" class="node">
<title>[root] data.aws_ami.server&#45;ubuntu (expand)</title>
<polygon fill="none" stroke="black" points="438.86,-108 265.86,-108 265.86,-72 438.86,-72 438.86,-108"/>
<text text-anchor="middle" x="352.36" y="-86.3" font-family="Times New Roman,serif" font-size="14.00">data.aws_ami.server&#45;ubuntu</text>
</g>
<!-- [root] aws_instance.instance_web2 (expand)&#45;&gt;[root] data.aws_ami.server&#45;ubuntu (expand) -->
<g id="edge4" class="edge">
<title>[root] aws_instance.instance_web2 (expand)&#45;&gt;[root] data.aws_ami.server&#45;ubuntu (expand)</title>
<path fill="none" stroke="black" d="M334.3,-143.7C336.85,-136.24 339.91,-127.32 342.78,-118.97"/>
<polygon fill="black" stroke="black" points="346.08,-120.13 346.01,-109.54 339.45,-117.86 346.08,-120.13"/>
</g>
<!-- [root] data.aws_ami.server&#45;ubuntu (expand)&#45;&gt;[root] provider[&quot;registry.terraform.io/hashicorp/aws&quot;] -->
<g id="edge5" class="edge">
<title>[root] data.aws_ami.server&#45;ubuntu (expand)&#45;&gt;[root] provider[&quot;registry.terraform.io/hashicorp/aws&quot;]</title>
<path fill="none" stroke="black" d="M328.88,-71.7C316.59,-62.64 301.39,-51.44 288.16,-41.69"/>
<polygon fill="black" stroke="black" points="290.3,-38.92 280.17,-35.81 286.15,-44.55 290.3,-38.92"/>
</g>
<!-- [root] provider[&quot;registry.terraform.io/hashicorp/aws&quot;] (close) -->
<g id="node6" class="node">
<title>[root] provider[&quot;registry.terraform.io/hashicorp/aws&quot;] (close)</title>
<ellipse fill="none" stroke="black" cx="245.36" cy="-234" rx="232.86" ry="18"/>
<text text-anchor="middle" x="245.36" y="-230.3" font-family="Times New Roman,serif" font-size="14.00">[root] provider[&quot;registry.terraform.io/hashicorp/aws&quot;] (close)</text>
</g>
<!-- [root] provider[&quot;registry.terraform.io/hashicorp/aws&quot;] (close)&#45;&gt;[root] aws_eip.ip_elastic (expand) -->
<g id="edge6" class="edge">
<title>[root] provider[&quot;registry.terraform.io/hashicorp/aws&quot;] (close)&#45;&gt;[root] aws_eip.ip_elastic (expand)</title>
<path fill="none" stroke="black" d="M224.85,-215.7C214.77,-207.2 202.46,-196.81 191.43,-187.51"/>
<polygon fill="black" stroke="black" points="193.99,-185.09 184.09,-181.32 189.48,-190.45 193.99,-185.09"/>
</g>
<!-- [root] provider[&quot;registry.terraform.io/hashicorp/aws&quot;] (close)&#45;&gt;[root] aws_instance.instance_web2 (expand) -->
<g id="edge7" class="edge">
<title>[root] provider[&quot;registry.terraform.io/hashicorp/aws&quot;] (close)&#45;&gt;[root] aws_instance.instance_web2 (expand)</title>
<path fill="none" stroke="black" d="M265.88,-215.7C275.96,-207.2 288.27,-196.81 299.3,-187.51"/>
<polygon fill="black" stroke="black" points="301.25,-190.45 306.64,-181.32 296.74,-185.09 301.25,-190.45"/>
</g>
<!-- [root] root -->
<g id="node7" class="node">
<title>[root] root</title>
<ellipse fill="none" stroke="black" cx="245.36" cy="-306" rx="49.29" ry="18"/>
<text text-anchor="middle" x="245.36" y="-302.3" font-family="Times New Roman,serif" font-size="14.00">[root] root</text>
</g>
<!-- [root] root&#45;&gt;[root] provider[&quot;registry.terraform.io/hashicorp/aws&quot;] (close) -->
<g id="edge8" class="edge">
<title>[root] root&#45;&gt;[root] provider[&quot;registry.terraform.io/hashicorp/aws&quot;] (close)</title>
<path fill="none" stroke="black" d="M245.36,-287.7C245.36,-280.41 245.36,-271.73 245.36,-263.54"/>
<polygon fill="black" stroke="black" points="248.86,-263.62 245.36,-253.62 241.86,-263.62 248.86,-263.62"/>
</g>
</g>
</svg>
